ply
format ascii 1.0
comment Created by Blender 2.66 (sub 1) - www.blender.org, source file: '55555555555555555555.blend'
element vertex 482
property float x
property float y
property float z
property float nx
property float ny
property float nz
property float s
property float t
element face 429
property list uchar uint vertex_indices
end_header
2.917058 0.000000 0.222556 0.995178 -0.097995 0.000000 0.486507 0.004246
2.917059 -0.000001 8.460508 0.989898 -0.097476 0.102725 0.866188 0.004246
2.897845 -0.195091 8.460508 0.975524 -0.194037 0.103214 0.866188 0.005544
2.897843 -0.195090 0.222556 0.980773 -0.195074 0.000000 0.486507 0.005544
2.840939 -0.382684 8.460508 0.918943 -0.380627 0.103214 0.866188 0.009386
2.840938 -0.382683 0.222556 0.923856 -0.382672 0.000000 0.486507 0.009386
2.748529 -0.555571 8.460508 0.827021 -0.552599 0.103214 0.866188 0.015625
2.748528 -0.555570 0.222556 0.831446 -0.555559 0.000000 0.486507 0.015625
2.624166 -0.707108 8.460508 0.703299 -0.703299 0.103214 0.866188 0.024022
2.624165 -0.707107 0.222556 0.707083 -0.707083 0.000000 0.486507 0.024022
2.472630 -0.831471 8.460508 0.552599 -0.827021 0.103214 0.866188 0.034254
2.472628 -0.831470 0.222556 0.555559 -0.831446 0.000000 0.486507 0.034254
2.299743 -0.923881 8.460508 0.380627 -0.918943 0.103214 0.866188 0.045928
2.299741 -0.923880 0.222556 0.382672 -0.923856 0.000000 0.486507 0.045928
2.112149 -0.980786 8.460508 0.194037 -0.975524 0.103214 0.866188 0.058594
2.112148 -0.980785 0.222556 0.195074 -0.980773 0.000000 0.486507 0.058594
1.917059 -1.000001 8.460508 0.000000 -0.994629 0.103214 0.866188 0.071766
1.917058 -1.000000 0.222556 -0.276955 -0.916745 -0.287851 0.486507 0.071766
1.721969 -0.980786 8.460508 -0.194037 -0.975524 0.103214 0.866188 0.084939
1.721967 -0.980785 0.222556 0.103214 -0.934263 -0.341227 0.486507 0.084939
1.534375 -0.923880 8.460508 -0.380627 -0.918943 0.103214 0.866188 0.097605
1.534374 -0.923879 0.222556 -0.382672 -0.923856 0.000000 0.486507 0.097605
1.361489 -0.831470 8.460508 -0.552599 -0.827021 0.103214 0.866188 0.109279
1.361487 -0.831469 0.222556 -0.555559 -0.831446 0.000000 0.486507 0.109279
1.209952 -0.707107 8.460508 -0.703299 -0.703299 0.103214 0.866188 0.119511
1.209951 -0.707106 0.222556 -0.707083 -0.707083 0.000000 0.486507 0.119511
1.085589 -0.555571 8.460508 -0.827021 -0.552599 0.103214 0.866188 0.127908
1.085588 -0.555570 0.222556 -0.831446 -0.555559 0.000000 0.486507 0.127908
0.993179 -0.382684 8.460508 -0.918943 -0.380627 0.103214 0.866188 0.134147
0.993178 -0.382683 0.222556 -0.923856 -0.382672 0.000000 0.486507 0.134147
0.936274 -0.195090 8.460508 -0.975524 -0.194037 0.103214 0.866188 0.137989
0.936272 -0.195089 0.222556 -0.980773 -0.195074 0.000000 0.486507 0.137989
0.917059 -0.000000 8.460508 -0.989898 -0.097476 0.102725 0.866188 0.139287
0.917058 0.000001 0.222556 -0.995178 -0.097995 0.000000 0.486507 0.139287
1.383349 -0.798748 -8.706956 -0.554186 -0.829402 -0.069948 0.074953 0.107803
1.237776 -0.679279 -8.706956 -0.705374 -0.705344 -0.069948 0.074953 0.117632
1.282534 -0.634522 -9.308487 -0.687826 -0.687826 -0.231758 0.047229 0.114610
1.418516 -0.746119 -9.308487 -0.540422 -0.808802 -0.231758 0.047229 0.105428
0.936271 -0.195089 -7.598872 -0.980621 -0.195044 -0.017701 0.126024 0.137989
0.917057 0.000002 -7.598872 -0.995025 -0.097995 -0.017640 0.126024 0.139287
0.956409 0.000002 -8.706956 -0.992767 -0.097751 -0.069613 0.074953 0.136630
0.974867 -0.187411 -8.706956 -0.978362 -0.194586 -0.069948 0.074953 0.135383
0.993177 -0.382682 -7.598872 -0.923734 -0.382611 -0.017701 0.126024 0.134147
1.029534 -0.367622 -8.706956 -0.921598 -0.381726 -0.069948 0.074953 0.131692
1.085587 -0.555569 -7.598872 -0.831324 -0.555467 -0.017701 0.126024 0.127908
1.118307 -0.533706 -8.706956 -0.829432 -0.554186 -0.069948 0.074953 0.125698
1.209949 -0.707105 -7.598872 -0.706992 -0.706992 -0.017701 0.126024 0.119511
1.361486 -0.831468 -7.598872 -0.555467 -0.831324 -0.017701 0.126024 0.109279
1.534373 -0.923878 -7.598872 -0.382611 -0.923704 -0.017701 0.126024 0.097605
1.549432 -0.887521 -8.706956 -0.381726 -0.921598 -0.069948 0.074953 0.096589
1.721966 -0.980784 -7.598872 -0.195044 -0.980621 -0.017701 0.126024 0.084939
1.729643 -0.942188 -8.706956 -0.194586 -0.978362 -0.069948 0.074953 0.084421
1.917056 -0.999999 -7.598872 0.000000 -0.999817 -0.017701 0.126024 0.071766
1.917056 -0.960646 -8.706956 0.000000 -0.997528 -0.069948 0.074953 0.071766
2.112147 -0.980784 -7.598872 0.195044 -0.980621 -0.017701 0.126024 0.058594
2.104469 -0.942188 -8.706956 0.194586 -0.978362 -0.069948 0.074953 0.059112
2.299740 -0.923879 -7.598872 0.382611 -0.923734 -0.017701 0.126024 0.045928
2.284680 -0.887522 -8.706956 0.381726 -0.921598 -0.069948 0.074953 0.046944
2.472627 -0.831469 -7.598872 0.555467 -0.831324 -0.017701 0.126024 0.034254
2.450763 -0.798748 -8.706956 0.554186 -0.829432 -0.069948 0.074953 0.035730
2.624163 -0.707106 -7.598872 0.706992 -0.706992 -0.017701 0.126024 0.024022
2.596337 -0.679279 -8.706956 0.705344 -0.705344 -0.069948 0.074953 0.025901
2.748526 -0.555569 -7.598872 0.831324 -0.555467 -0.017701 0.126024 0.015625
2.715806 -0.533706 -8.706956 0.829432 -0.554186 -0.069948 0.074953 0.017835
2.840936 -0.382682 -7.598872 0.923734 -0.382611 -0.017701 0.126024 0.009386
2.804579 -0.367623 -8.706956 0.921598 -0.381726 -0.069948 0.074953 0.011841
2.897842 -0.195089 -7.598872 0.980621 -0.195044 -0.017701 0.126024 0.005544
2.859245 -0.187412 -8.706956 0.978362 -0.194586 -0.069948 0.074953 0.008150
2.917057 0.000001 -7.598872 0.995025 -0.097995 -0.017640 0.126024 0.004246
2.877704 0.000001 -8.706956 0.992767 -0.097751 -0.069613 0.074953 0.006903
1.088013 -0.343400 -9.308487 -0.898709 -0.372234 -0.231758 0.047229 0.127744
1.036949 -0.175063 -9.308487 -0.954070 -0.189764 -0.231758 0.047229 0.131192
1.207893 -0.141060 -9.762274 -0.793695 -0.157872 -0.587420 0.026314 0.119649
1.249039 -0.276701 -9.762274 -0.747642 -0.309671 -0.587420 0.026314 0.116871
1.741993 -0.880108 -9.308487 -0.189764 -0.954070 -0.231758 0.047229 0.083587
1.917057 -0.897350 -9.308487 0.000000 -0.972747 -0.231758 0.047229 0.071766
2.260459 -0.829043 -9.308487 0.372234 -0.898709 -0.231758 0.047229 0.048580
2.415599 -0.746119 -9.308487 0.540422 -0.808802 -0.231758 0.047229 0.038105
2.663177 -0.498541 -9.308487 0.808802 -0.540422 -0.231758 0.047229 0.021388
2.746102 -0.343400 -9.308487 0.898709 -0.372234 -0.231758 0.047229 0.015789
1.170937 -0.498540 -9.308487 -0.808802 -0.540422 -0.231758 0.047229 0.122145
1.573656 -0.829043 -9.308487 -0.372234 -0.898709 -0.231758 0.047229 0.094953
2.092122 -0.880108 -9.308487 0.189764 -0.954070 -0.231758 0.047229 0.059946
2.551580 -0.634522 -9.308487 0.687826 -0.687826 -0.231758 0.047229 0.028923
2.797166 -0.175063 -9.308487 0.954070 -0.189764 -0.231758 0.047229 0.012341
1.019706 0.000002 -9.308487 -0.968322 -0.095370 -0.230689 0.047229 0.132356
2.814409 0.000001 -9.308487 0.968322 -0.095370 -0.230689 0.047229 0.011177
1.405778 -0.511278 -9.762274 -0.572222 -0.572222 -0.587420 0.026314 0.106288
1.515347 -0.601199 -9.762274 -0.449599 -0.672872 -0.587420 0.026314 0.098890
1.775995 -0.709163 -9.762274 -0.157872 -0.793695 -0.587420 0.026314 0.081291
1.917057 -0.723057 -9.762274 0.000000 -0.809259 -0.587420 0.026314 0.071766
2.193759 -0.668017 -9.762274 0.309671 -0.747642 -0.587420 0.026314 0.053083
2.318767 -0.601200 -9.762274 0.449599 -0.672872 -0.587420 0.026314 0.044643
2.518258 -0.401708 -9.762274 0.672872 -0.449599 -0.587420 0.026314 0.031173
2.585076 -0.276701 -9.762274 0.747642 -0.309671 -0.587420 0.026314 0.026662
1.315856 -0.401708 -9.762274 -0.672872 -0.449599 -0.587420 0.026314 0.112360
1.640355 -0.668017 -9.762274 -0.309671 -0.747642 -0.587420 0.026314 0.090449
2.058119 -0.709163 -9.762274 0.157872 -0.793695 -0.587420 0.026314 0.062242
2.428336 -0.511278 -9.762274 0.572222 -0.572222 -0.587420 0.026314 0.037245
2.626222 -0.141060 -9.762274 0.793695 -0.157872 -0.587420 0.026314 0.023883
1.193999 0.000002 -9.762274 -0.806696 -0.079440 -0.585559 0.026314 0.120587
2.640115 0.000001 -9.762274 0.806696 -0.079440 -0.585559 0.026314 0.022945
1.592873 -0.064483 -10.068317 -0.538926 -0.107181 -0.835475 0.012209 0.093655
1.611682 -0.126489 -10.068317 -0.507675 -0.210273 -0.835475 0.012209 0.092385
1.683333 -0.233723 -10.068317 -0.388531 -0.388531 -0.835475 0.012209 0.087548
1.733421 -0.274829 -10.068317 -0.305277 -0.456893 -0.835475 0.012209 0.084166
1.852573 -0.324184 -10.068317 -0.107181 -0.538926 -0.835475 0.012209 0.076120
1.917057 -0.330535 -10.068317 0.000000 -0.549486 -0.835475 0.012209 0.071766
2.043548 -0.305374 -10.068317 0.210273 -0.507675 -0.835475 0.012209 0.063226
2.100694 -0.274829 -10.068317 0.305277 -0.456893 -0.835475 0.012209 0.059367
2.191888 -0.183635 -10.068317 0.456893 -0.305277 -0.835475 0.012209 0.053210
2.222433 -0.126489 -10.068317 0.507675 -0.210273 -0.835475 0.012209 0.051147
1.642227 -0.183635 -10.068317 -0.456893 -0.305277 -0.835475 0.012209 0.090323
1.790567 -0.305374 -10.068317 -0.210273 -0.507675 -0.835475 0.012209 0.080307
1.981542 -0.324184 -10.068317 0.107181 -0.538926 -0.835475 0.012209 0.067412
2.150782 -0.233723 -10.068317 0.388531 -0.388531 -0.835475 0.012209 0.055985
2.241242 -0.064483 -10.068317 0.538926 -0.107181 -0.835475 0.012209 0.049877
1.586521 0.000002 -10.068317 -0.548692 -0.054018 -0.834254 0.012209 0.094084
2.247594 0.000001 -10.068317 0.548692 -0.054018 -0.834254 0.012209 0.049448
1.843634 -0.014603 -10.205507 -0.677084 -0.134678 -0.723441 0.005886 0.076724
1.847894 -0.028647 -10.205507 -0.637806 -0.264168 -0.723441 0.005886 0.076436
1.864122 -0.052934 -10.205507 -0.488144 -0.488144 -0.723441 0.005886 0.075341
1.875466 -0.062244 -10.205507 -0.383526 -0.574023 -0.723441 0.005886 0.074575
1.902453 -0.073422 -10.205507 -0.134678 -0.677084 -0.723441 0.005886 0.072752
1.917058 -0.074860 -10.205507 0.000000 -0.690359 -0.723441 0.005886 0.071766
1.945706 -0.069162 -10.205507 0.264168 -0.637806 -0.723441 0.005886 0.069832
1.958649 -0.062244 -10.205507 0.383526 -0.574023 -0.723441 0.005886 0.068958
1.979303 -0.041590 -10.205507 0.574023 -0.383526 -0.723441 0.005886 0.067564
1.986221 -0.028647 -10.205507 0.637806 -0.264168 -0.723441 0.005886 0.067096
1.854812 -0.041590 -10.205507 -0.574023 -0.383526 -0.723441 0.005886 0.075969
1.888409 -0.069162 -10.205507 -0.264168 -0.637806 -0.723441 0.005886 0.073701
1.931662 -0.073422 -10.205507 0.134678 -0.677084 -0.723441 0.005886 0.070780
1.969993 -0.052934 -10.205507 0.488144 -0.488144 -0.723441 0.005886 0.068192
1.990481 -0.014603 -10.205507 0.677084 -0.134678 -0.723441 0.005886 0.066809
1.842196 0.000001 -10.205507 -0.688772 -0.067812 -0.721763 0.005886 0.076821
1.991920 0.000001 -10.205507 0.688772 -0.067812 -0.721763 0.005886 0.066712
1.890381 -0.005305 -10.289929 -0.854060 -0.169866 -0.491623 0.001995 0.073568
1.891929 -0.010407 -10.289929 -0.804498 -0.333232 -0.491623 0.001995 0.073463
1.897825 -0.019231 -10.289929 -0.615741 -0.615741 -0.491623 0.001995 0.073065
1.901947 -0.022614 -10.289929 -0.483779 -0.724021 -0.491623 0.001995 0.072787
1.911751 -0.026675 -10.289929 -0.169866 -0.854060 -0.491623 0.001995 0.072125
1.917058 -0.027198 -10.289929 0.000000 -0.870785 -0.491623 0.001995 0.071766
1.927466 -0.025127 -10.289929 0.333232 -0.804498 -0.491623 0.001995 0.071064
1.932169 -0.022614 -10.289929 0.483779 -0.724021 -0.491623 0.001995 0.070746
1.939673 -0.015110 -10.289929 0.724021 -0.483779 -0.491623 0.001995 0.070239
1.942186 -0.010407 -10.289929 0.804498 -0.333232 -0.491623 0.001995 0.070070
1.894442 -0.015110 -10.289929 -0.724021 -0.483779 -0.491623 0.001995 0.073293
1.906649 -0.025127 -10.289929 -0.333232 -0.804498 -0.491623 0.001995 0.072469
1.922364 -0.026675 -10.289929 0.169866 -0.854060 -0.491623 0.001995 0.071408
1.936290 -0.019231 -10.289929 0.615741 -0.615741 -0.491623 0.001995 0.070468
1.943734 -0.005305 -10.289929 0.854060 -0.169866 -0.491623 0.001995 0.069965
1.889859 0.000001 -10.289929 -0.867611 -0.085421 -0.489822 0.001995 0.073603
1.944257 0.000001 -10.289929 0.867611 -0.085452 -0.489822 0.001995 0.069930
1.012833 -0.179862 8.830069 -0.960143 -0.190985 0.203955 0.883221 0.132820
0.995119 -0.000000 8.830069 -0.974456 -0.095950 0.203009 0.883221 0.134016
1.065297 -0.352812 8.830069 -0.904447 -0.374615 0.203955 0.883221 0.129278
1.150493 -0.512203 8.830069 -0.813990 -0.543870 0.203955 0.883221 0.123525
1.265148 -0.651911 8.830069 -0.692221 -0.692221 0.203955 0.883221 0.115784
1.404856 -0.766566 8.830069 -0.543870 -0.813990 0.203955 0.883221 0.106351
1.564247 -0.851763 8.830069 -0.374615 -0.904447 0.203955 0.883221 0.095588
1.737197 -0.904227 8.830069 -0.190985 -0.960143 0.203955 0.883221 0.083911
1.917059 -0.921942 8.830069 0.000000 -0.978973 0.203955 0.883221 0.071766
2.096921 -0.904227 8.830069 0.190985 -0.960143 0.203955 0.883221 0.059622
2.269871 -0.851763 8.830069 0.374615 -0.904447 0.203955 0.883221 0.047944
2.429262 -0.766567 8.830069 0.543870 -0.813990 0.203955 0.883221 0.037182
2.568970 -0.651912 8.830069 0.692221 -0.692221 0.203955 0.883221 0.027749
2.683625 -0.512204 8.830069 0.813990 -0.543870 0.203955 0.883221 0.020008
2.768822 -0.352812 8.830069 0.904447 -0.374615 0.203955 0.883221 0.014255
2.821285 -0.179863 8.830069 0.960143 -0.190985 0.203955 0.883221 0.010713
2.839000 -0.000001 8.830069 0.974456 -0.095950 0.203009 0.883221 0.009517
1.490437 -0.176713 11.070530 -0.919065 -0.380688 0.101749 0.986482 0.100572
1.464159 -0.090088 11.070530 -0.975677 -0.194067 0.101749 0.986482 0.102346
1.660511 -0.383950 11.070530 -0.552660 -0.827143 0.101749 0.986482 0.089089
1.590536 -0.326523 11.070530 -0.703421 -0.703421 0.101749 0.986482 0.093813
1.917058 -0.461773 11.070530 0.000000 -0.994781 0.101749 0.986482 0.071767
1.826971 -0.452900 11.070530 -0.194067 -0.975677 0.101749 0.986482 0.077849
2.173605 -0.383950 11.070530 0.552660 -0.827143 0.101749 0.986482 0.054445
2.093771 -0.426622 11.070530 0.380688 -0.919065 0.101749 0.986482 0.059835
2.343680 -0.176713 11.070530 0.919065 -0.380688 0.101749 0.986482 0.042961
2.301008 -0.256547 11.070530 0.827143 -0.552660 0.101749 0.986482 0.045842
1.533109 -0.256547 11.070530 -0.827143 -0.552660 0.101749 0.986482 0.097691
1.740346 -0.426622 11.070530 -0.380688 -0.919065 0.101749 0.986482 0.083698
2.007145 -0.452900 11.070530 0.194067 -0.975677 0.101749 0.986482 0.065684
2.243580 -0.326523 11.070530 0.703421 -0.703421 0.101749 0.986482 0.049720
2.369957 -0.090088 11.070530 0.975677 -0.194067 0.101749 0.986482 0.041187
1.455287 -0.000000 11.070530 -0.990051 -0.097507 0.101260 0.986482 0.102946
2.378830 -0.000001 11.070530 0.990051 -0.097507 0.101260 0.986482 0.040588
1.490437 -0.176713 11.162920 -0.923856 -0.382672 0.000000 0.990740 0.100572
1.464159 -0.090088 11.162920 -0.980773 -0.195074 0.000000 0.990740 0.102346
1.660511 -0.383950 11.162920 -0.555559 -0.831446 0.000000 0.990740 0.089089
1.590536 -0.326523 11.162920 -0.707083 -0.707083 0.000000 0.990740 0.093813
1.917058 -0.461773 11.162920 0.000000 -1.000000 0.000000 0.990740 0.071767
1.826971 -0.452900 11.162920 -0.195074 -0.980773 0.000000 0.990740 0.077849
2.173605 -0.383950 11.162920 0.555559 -0.831446 0.000000 0.990740 0.054445
2.093771 -0.426622 11.162920 0.382672 -0.923856 0.000000 0.990740 0.059835
2.343680 -0.176713 11.162920 0.923856 -0.382672 0.000000 0.990740 0.042961
2.301008 -0.256547 11.162920 0.831446 -0.555559 0.000000 0.990740 0.045842
1.533109 -0.256547 11.162920 -0.831446 -0.555559 0.000000 0.990740 0.097691
1.740346 -0.426622 11.162920 -0.382672 -0.923856 0.000000 0.990740 0.083698
2.007145 -0.452900 11.162920 0.195074 -0.980773 0.000000 0.990740 0.065684
2.243580 -0.326523 11.162920 0.707083 -0.707083 0.000000 0.990740 0.049720
2.369957 -0.090088 11.162920 0.980773 -0.195074 0.000000 0.990740 0.041187
1.455287 -0.000000 11.162920 -0.995178 -0.097995 0.000000 0.990740 0.102946
2.378830 -0.000001 11.162920 0.995178 -0.097995 0.000000 0.990740 0.040588
2.917058 0.000000 -1.304705 0.995178 -0.097995 0.000000 0.416117 0.004246
2.897843 -0.195090 -1.304705 0.980773 -0.195074 0.000000 0.416117 0.005544
2.840937 -0.382683 -1.304705 0.923856 -0.382672 0.000000 0.416117 0.009386
2.748527 -0.555570 -1.304705 0.831446 -0.555559 0.000000 0.416117 0.015625
2.624164 -0.707107 -1.304705 0.707083 -0.707083 0.000000 0.416117 0.024022
2.472628 -0.831470 -1.304705 0.555559 -0.831446 0.000000 0.416117 0.034254
2.299741 -0.923880 -1.304705 0.382672 -0.923856 0.000000 0.416117 0.045928
2.112148 -0.980785 -1.304705 0.195074 -0.980773 0.000000 0.416117 0.058594
1.917057 -1.000000 -1.304705 -0.276955 -0.916745 0.287851 0.416117 0.071766
1.534374 -0.923879 -1.304705 -0.382672 -0.923856 0.000000 0.416117 0.097605
1.721967 -0.980785 -0.994699 0.595691 -0.803186 0.000000 0.430405 0.084939
1.721967 -0.980785 -1.304705 0.103214 -0.934263 0.341227 0.416117 0.084939
1.361487 -0.831469 -1.304705 -0.555559 -0.831446 0.000000 0.416117 0.109279
1.209950 -0.707106 -1.304705 -0.707083 -0.707083 0.000000 0.416117 0.119511
1.085588 -0.555570 -1.304705 -0.831446 -0.555559 0.000000 0.416117 0.127908
0.993178 -0.382683 -1.304705 -0.923856 -0.382672 0.000000 0.416117 0.134147
0.936272 -0.195089 -1.304705 -0.980773 -0.195074 0.000000 0.416117 0.137989
0.917058 0.000001 -1.304705 -0.995178 -0.097995 0.000000 0.416117 0.139287
1.917058 1.000000 0.222555 -0.281777 0.906613 -0.314005 0.514343 0.213216
1.917059 0.999999 8.460508 -0.000061 0.994629 0.103214 0.134729 0.213215
2.112150 0.980784 8.460508 0.194037 0.975524 0.103214 0.134729 0.200790
2.112148 0.980785 0.222556 0.195074 0.980773 0.000000 0.514343 0.200790
2.299743 0.923878 8.460508 0.380627 0.918943 0.103214 0.134729 0.188842
2.299741 0.923879 0.222556 0.382672 0.923856 0.000000 0.514343 0.188843
2.472630 0.831469 8.460508 0.552599 0.827021 0.103214 0.134729 0.177831
2.472628 0.831470 0.222556 0.555559 0.831446 0.000000 0.514343 0.177831
2.624166 0.707106 8.460508 0.703299 0.703299 0.103214 0.134729 0.168180
2.624165 0.707107 0.222556 0.707083 0.707083 0.000000 0.514343 0.168180
2.748529 0.555569 8.460508 0.827021 0.552599 0.103214 0.134729 0.160259
2.748528 0.555570 0.222556 0.831446 0.555559 0.000000 0.514343 0.160259
2.840939 0.382682 8.460508 0.918943 0.380627 0.103214 0.134729 0.154374
2.840938 0.382683 0.222556 0.923856 0.382672 0.000000 0.514343 0.154374
2.897845 0.195089 8.460508 0.975524 0.194037 0.103214 0.134729 0.150749
2.897843 0.195090 0.222556 0.980773 0.195074 0.000000 0.514343 0.150749
2.917059 -0.000001 8.460508 0.989898 0.097476 0.102725 0.134729 0.149526
2.917058 0.000000 0.222556 0.995178 0.097995 0.000000 0.514343 0.149526
0.917058 0.000001 0.222556 -0.995178 0.097995 0.000000 0.514343 0.276906
0.917059 -0.000000 8.460508 -0.989898 0.097476 0.102725 0.134729 0.276906
0.936274 0.195090 8.460508 -0.975524 0.194037 0.103214 0.134729 0.275682
0.936273 0.195091 0.222556 -0.980773 0.195074 0.000000 0.514343 0.275682
0.993180 0.382683 8.460508 -0.918943 0.380627 0.103214 0.134729 0.272057
0.993179 0.382684 0.222556 -0.923856 0.382672 0.000000 0.514343 0.272058
1.085590 0.555570 8.460508 -0.827021 0.552599 0.103214 0.134729 0.266172
1.085589 0.555571 0.222556 -0.831446 0.555559 0.000000 0.514343 0.266172
1.209953 0.707107 8.460508 -0.703299 0.703330 0.103214 0.134729 0.258251
1.209952 0.707108 0.222556 -0.707083 0.707083 0.000000 0.514343 0.258251
1.361490 0.831469 8.460508 -0.552599 0.827021 0.103214 0.134729 0.248600
1.361489 0.831470 0.222556 -0.555559 0.831446 0.000000 0.514343 0.248600
1.534377 0.923879 8.460508 -0.387799 0.915922 0.103336 0.134729 0.237589
1.534376 0.923880 0.222556 -0.406446 0.913663 0.000183 0.514343 0.237589
1.065298 0.352811 8.830069 -0.904447 0.374615 0.203955 0.117699 0.267464
1.150494 0.512203 8.830069 -0.813990 0.543870 0.203955 0.117699 0.262038
1.668268 0.975388 0.222556 0.069124 0.945647 -0.317698 0.514343 0.225641
1.721971 0.980785 8.460508 -0.201453 0.973998 0.103488 0.134729 0.225641
2.624163 0.707108 -7.598872 0.706992 0.706992 -0.017701 0.874763 0.168180
2.748526 0.555571 -7.598872 0.831324 0.555467 -0.017701 0.874763 0.160259
2.715806 0.533708 -8.706956 0.829432 0.554186 -0.069948 0.925824 0.162343
2.596337 0.679281 -8.706956 0.705344 0.705344 -0.069948 0.925824 0.169952
2.472627 0.831470 -7.598872 0.555467 0.831324 -0.017701 0.874763 0.177831
2.450763 0.798750 -8.706956 0.554186 0.829432 -0.069948 0.925825 0.179224
2.299740 0.923880 -7.598872 0.382611 0.923734 -0.017701 0.874763 0.188843
2.284680 0.887523 -8.706956 0.381726 0.921598 -0.069948 0.925825 0.189802
2.112147 0.980786 -7.598872 0.195044 0.980621 -0.017701 0.874763 0.200790
2.104469 0.942190 -8.706956 0.194586 0.978362 -0.069948 0.925825 0.201279
1.721968 0.980786 -7.598872 -0.202338 0.979125 -0.017975 0.874763 0.225641
1.917057 1.000001 -7.598872 -0.000031 0.999817 -0.017701 0.874763 0.213216
1.917056 0.960648 -8.706956 0.000000 0.997528 -0.069948 0.925825 0.213216
1.729645 0.942190 -8.706956 -0.194586 0.978362 -0.069948 0.925825 0.225152
1.534374 0.923881 -7.598872 -0.389691 0.920743 -0.017945 0.874763 0.237589
1.549434 0.887524 -8.706956 -0.381726 0.921598 -0.069948 0.925825 0.236630
1.361488 0.831471 -7.598872 -0.555467 0.831324 -0.017701 0.874763 0.248600
1.383350 0.798751 -8.706956 -0.554186 0.829432 -0.069948 0.925825 0.247208
1.209951 0.707109 -7.598872 -0.706992 0.706992 -0.017701 0.874763 0.258251
1.237777 0.679282 -8.706956 -0.705344 0.705374 -0.069948 0.925825 0.256479
1.085588 0.555572 -7.598872 -0.831324 0.555467 -0.017701 0.874763 0.266172
1.118308 0.533709 -8.706956 -0.829402 0.554186 -0.069948 0.925825 0.264088
0.993178 0.382685 -7.598872 -0.923704 0.382611 -0.017701 0.874763 0.272058
1.029534 0.367626 -8.706956 -0.921598 0.381726 -0.069948 0.925825 0.269742
0.936272 0.195092 -7.598872 -0.980621 0.195044 -0.017701 0.874763 0.275682
0.974868 0.187415 -8.706956 -0.978362 0.194586 -0.069948 0.925825 0.273224
0.917057 0.000002 -7.598872 -0.995025 0.097995 -0.017640 0.874763 0.276906
0.956409 0.000002 -8.706956 -0.992767 0.097751 -0.069613 0.925825 0.274399
2.897842 0.195091 -7.598872 0.980621 0.195044 -0.017701 0.874763 0.150750
2.917057 0.000001 -7.598872 0.995025 0.097995 -0.017640 0.874763 0.149526
2.877704 0.000001 -8.706956 0.992767 0.097751 -0.069613 0.925824 0.152032
2.859245 0.187414 -8.706956 0.978362 0.194586 -0.069948 0.925824 0.153208
2.840936 0.382684 -7.598872 0.923734 0.382611 -0.017701 0.874763 0.154374
2.804579 0.367625 -8.706956 0.921598 0.381726 -0.069948 0.925824 0.156689
2.814409 0.000001 -9.308487 0.968322 0.095370 -0.230689 0.953544 0.156063
2.797166 0.175066 -9.308487 0.954070 0.189764 -0.231758 0.953544 0.157162
2.663177 0.498542 -9.308487 0.808802 0.540422 -0.231758 0.953544 0.165695
2.551580 0.634524 -9.308487 0.687826 0.687826 -0.231758 0.953544 0.172803
2.260459 0.829045 -9.308487 0.372234 0.898709 -0.231758 0.953544 0.191344
2.092122 0.880110 -9.308487 0.189764 0.954070 -0.231758 0.953544 0.202066
1.741994 0.880110 -9.308487 -0.189764 0.954070 -0.231758 0.953544 0.224366
1.573657 0.829046 -9.308487 -0.372234 0.898709 -0.231758 0.953544 0.235087
1.282535 0.634525 -9.308487 -0.687826 0.687826 -0.231758 0.953544 0.253629
1.170938 0.498543 -9.308487 -0.808802 0.540422 -0.231758 0.953544 0.260736
1.036949 0.175066 -9.308487 -0.954070 0.189764 -0.231758 0.953544 0.269270
1.019706 0.000002 -9.308487 -0.968322 0.095370 -0.230689 0.953544 0.270368
2.746102 0.343402 -9.308487 0.898709 0.372234 -0.231758 0.953544 0.160414
2.415599 0.746121 -9.308487 0.540422 0.808802 -0.231758 0.953544 0.181464
1.917058 0.897352 -9.308487 0.000000 0.972747 -0.231758 0.953544 0.213216
1.418517 0.746122 -9.308487 -0.540422 0.808802 -0.231758 0.953544 0.244968
1.088014 0.343403 -9.308487 -0.898709 0.372234 -0.231758 0.953544 0.266018
1.207893 0.141063 -9.762274 -0.793695 0.157872 -0.587420 0.974455 0.258382
1.249039 0.276704 -9.762274 -0.747642 0.309671 -0.587420 0.974455 0.255762
1.611682 0.126492 -10.068317 -0.507675 0.210273 -0.835475 0.988558 0.232665
1.592873 0.064486 -10.068317 -0.538926 0.107181 -0.835475 0.988558 0.233863
2.640115 0.000001 -9.762274 0.806696 0.079440 -0.585559 0.974455 0.167164
2.626222 0.141063 -9.762274 0.793695 0.157872 -0.587420 0.974455 0.168049
2.518258 0.401710 -9.762274 0.672872 0.449599 -0.587420 0.974455 0.174925
2.428336 0.511280 -9.762274 0.572222 0.572222 -0.587420 0.974455 0.180652
2.193759 0.668019 -9.762274 0.309671 0.747642 -0.587420 0.974455 0.195593
2.058119 0.709166 -9.762274 0.157872 0.793695 -0.587420 0.974455 0.204232
1.775997 0.709166 -9.762274 -0.157872 0.793695 -0.587420 0.974455 0.222200
1.640356 0.668020 -9.762274 -0.309671 0.747642 -0.587420 0.974455 0.230839
1.405779 0.511281 -9.762274 -0.572222 0.572222 -0.587420 0.974455 0.245779
1.315857 0.401711 -9.762274 -0.672872 0.449599 -0.587420 0.974455 0.251506
1.193999 0.000002 -9.762274 -0.806696 0.079440 -0.585559 0.974455 0.259267
2.585076 0.276703 -9.762274 0.747642 0.309671 -0.587420 0.974455 0.170670
2.318767 0.601202 -9.762274 0.449599 0.672872 -0.587420 0.974455 0.187631
1.917057 0.723059 -9.762274 0.000000 0.809259 -0.587420 0.974455 0.213216
1.515349 0.601202 -9.762274 -0.449599 0.672872 -0.587420 0.974455 0.238801
1.683334 0.233726 -10.068317 -0.388531 0.388531 -0.835475 0.988558 0.228102
1.733422 0.274832 -10.068317 -0.305277 0.456893 -0.835475 0.988558 0.224911
1.875467 0.062247 -10.205507 -0.383526 0.574023 -0.723441 0.994879 0.215865
1.864122 0.052937 -10.205507 -0.488144 0.488144 -0.723441 0.994879 0.216587
2.247594 0.000001 -10.068317 0.548692 0.054018 -0.834254 0.988558 0.192164
2.241242 0.064486 -10.068317 0.538926 0.107181 -0.835475 0.988558 0.192568
2.191888 0.183637 -10.068317 0.456893 0.305277 -0.835475 0.988558 0.195712
2.150782 0.233726 -10.068317 0.388531 0.388531 -0.835475 0.988558 0.198330
2.043548 0.305377 -10.068317 0.210273 0.507675 -0.835475 0.988558 0.205160
1.981542 0.324186 -10.068317 0.107181 0.538926 -0.835475 0.988558 0.209109
1.852574 0.324186 -10.068317 -0.107181 0.538926 -0.835475 0.988558 0.217323
1.790567 0.305377 -10.068317 -0.210273 0.507675 -0.835475 0.988558 0.221272
1.642227 0.183638 -10.068317 -0.456893 0.305277 -0.835475 0.988558 0.230720
1.586521 0.000002 -10.068317 -0.548692 0.054018 -0.834254 0.988558 0.234268
2.222433 0.126492 -10.068317 0.507675 0.210273 -0.835475 0.988558 0.193766
2.100694 0.274832 -10.068317 0.305277 0.456893 -0.835475 0.988558 0.201520
1.917058 0.330537 -10.068317 0.000000 0.549486 -0.835475 0.988558 0.213216
1.902453 0.073425 -10.205507 -0.134678 0.677084 -0.723441 0.994879 0.214146
1.917058 0.074863 -10.205507 0.000000 0.690359 -0.723441 0.994879 0.213216
1.917058 0.027200 -10.289929 0.000000 0.526902 -0.849879 0.998770 0.213216
1.911752 0.026678 -10.289929 -0.102786 0.516800 -0.849879 0.998770 0.213554
1.847894 0.028650 -10.205507 -0.637806 0.264168 -0.723441 0.994879 0.217621
1.843634 0.014606 -10.205507 -0.677084 0.134678 -0.723441 0.994879 0.217892
1.991920 0.000001 -10.205507 0.688772 0.067812 -0.721763 0.994879 0.208448
1.990481 0.014606 -10.205507 0.677084 0.134678 -0.723441 0.994879 0.208539
1.979303 0.041592 -10.205507 0.574023 0.383526 -0.723441 0.994879 0.209251
1.969993 0.052937 -10.205507 0.488144 0.488144 -0.723441 0.994879 0.209844
1.945706 0.069165 -10.205507 0.264168 0.637806 -0.723441 0.994879 0.211391
1.931662 0.073425 -10.205507 0.134678 0.677084 -0.723441 0.994879 0.212286
1.888409 0.069165 -10.205507 -0.264168 0.637806 -0.723441 0.994879 0.215040
1.854812 0.041592 -10.205507 -0.574023 0.383526 -0.723441 0.994879 0.217180
1.842196 0.000001 -10.205507 -0.688772 0.067812 -0.721763 0.994879 0.217984
1.986221 0.028650 -10.205507 0.637806 0.264168 -0.723441 0.994879 0.208811
1.958649 0.062247 -10.205507 0.383526 0.574023 -0.723441 0.994879 0.210567
1.922364 0.026678 -10.289929 0.102756 0.516800 -0.849910 0.998770 0.212878
1.906649 0.025130 -10.289929 -0.201636 0.486801 -0.849879 0.998770 0.213879
1.927466 0.025130 -10.289929 0.201605 0.486801 -0.849910 0.998770 0.212553
1.901947 0.022617 -10.289929 -0.292734 0.438093 -0.849879 0.998770 0.214178
1.932169 0.022617 -10.289929 0.292734 0.438124 -0.849910 0.998770 0.212253
1.897825 0.019234 -10.289929 -0.372600 0.372570 -0.849879 0.998770 0.214441
1.936290 0.019234 -10.289929 0.372570 0.372570 -0.849910 0.998770 0.211991
1.894443 0.015112 -10.289929 -0.438124 0.292734 -0.849879 0.998770 0.214656
1.939673 0.015112 -10.289929 0.438093 0.292734 -0.849910 0.998770 0.211775
1.891929 0.010410 -10.289929 -0.486801 0.201636 -0.849879 0.998770 0.214816
1.942186 0.010410 -10.289929 0.486801 0.201636 -0.849910 0.998770 0.211615
1.890381 0.005308 -10.289929 -0.516800 0.102786 -0.849879 0.998770 0.214915
1.943734 0.005308 -10.289929 0.516770 0.102786 -0.849910 0.998770 0.211517
1.889859 0.000001 -10.289929 -0.351543 0.034608 -0.935514 0.998770 0.214948
1.944257 0.000001 -10.289929 0.351512 0.034608 -0.935514 0.998770 0.211483
1.890381 -0.005305 -10.289929 0.000000 0.000000 -1.000000 0.998770 0.214915
1.943734 -0.005305 -10.289929 0.000000 0.000000 -1.000000 0.998770 0.211517
1.891929 -0.010407 -10.289929 0.000000 0.000000 -0.999969 0.998770 0.214816
1.942186 -0.010407 -10.289929 0.000000 0.000000 -0.999969 0.998770 0.211615
1.894442 -0.015110 -10.289929 0.000000 0.000000 -1.000000 0.998770 0.214656
1.939673 -0.015110 -10.289929 0.000000 0.000000 -1.000000 0.998770 0.211775
1.897825 -0.019231 -10.289929 0.000000 0.000000 -0.999969 0.998770 0.214441
1.936290 -0.019231 -10.289929 0.000000 0.000000 -1.000000 0.998770 0.211991
1.901947 -0.022614 -10.289929 0.000000 0.000000 -1.000000 0.998770 0.214178
1.932169 -0.022614 -10.289929 0.000000 0.000000 -1.000000 0.998770 0.212253
1.906649 -0.025127 -10.289929 0.000000 0.000000 -1.000000 0.998770 0.213879
1.927466 -0.025127 -10.289929 0.000000 0.000000 -0.999969 0.998770 0.212553
1.911751 -0.026675 -10.289929 0.000000 0.000000 -1.000000 0.998770 0.213554
1.922364 -0.026675 -10.289929 0.000000 0.000000 -1.000000 0.998770 0.212878
1.917058 -0.027198 -10.289929 0.000000 0.000000 -1.000000 0.998770 0.213216
2.429262 0.766565 8.830069 0.543870 0.813990 0.203955 0.117699 0.180593
2.269871 0.851761 8.830069 0.374615 0.904447 0.203955 0.117699 0.190745
2.093771 0.426621 11.070530 0.380688 0.919065 0.101749 0.014457 0.201961
2.173605 0.383948 11.070530 0.552660 0.827143 0.101749 0.014457 0.196876
1.012834 0.179862 8.830069 -0.960143 0.190985 0.203955 0.117699 0.270806
0.995119 -0.000000 8.830069 -0.974456 0.095950 0.203009 0.117699 0.271934
1.917059 0.921940 8.830069 0.000000 0.978973 0.203955 0.117699 0.213215
2.096921 0.904225 8.830069 0.190985 0.960143 0.203955 0.117699 0.201760
2.821285 0.179861 8.830069 0.960143 0.190985 0.203955 0.117699 0.155625
2.839000 -0.000001 8.830069 0.974456 0.095950 0.203009 0.117699 0.154497
2.768821 0.352810 8.830069 0.904447 0.374615 0.203955 0.117699 0.158967
2.683625 0.512202 8.830069 0.813990 0.543870 0.203955 0.117699 0.164393
2.568970 0.651910 8.830069 0.692221 0.692221 0.203955 0.117699 0.171695
1.737199 0.904225 8.830069 -0.190985 0.960143 0.203955 0.117699 0.224671
1.564249 0.851762 8.830069 -0.374615 0.904447 0.203955 0.117699 0.235686
1.404858 0.766565 8.830069 -0.543870 0.813990 0.203955 0.117699 0.245838
1.265150 0.651910 8.830069 -0.692221 0.692221 0.203955 0.117699 0.254736
2.343680 0.176711 11.070530 0.919065 0.380688 0.101749 0.014457 0.186044
2.301008 0.256546 11.070530 0.827143 0.552660 0.101749 0.014457 0.188762
2.301008 0.256546 11.162920 0.831446 0.555559 0.000000 0.010199 0.188762
2.343680 0.176711 11.162920 0.923856 0.382672 0.000000 0.010199 0.186044
1.826972 0.452898 11.070530 -0.194067 0.975677 0.101749 0.014457 0.218953
1.917058 0.461771 11.070530 0.000000 0.994781 0.101749 0.014457 0.213216
1.590537 0.326521 11.070530 -0.703421 0.703421 0.101749 0.014457 0.234012
1.660512 0.383949 11.070530 -0.552660 0.827143 0.101749 0.014457 0.229555
1.464159 0.090087 11.070530 -0.975677 0.194067 0.101749 0.014457 0.242061
1.490437 0.176712 11.070530 -0.919065 0.380688 0.101749 0.014457 0.240387
2.369957 0.090086 11.070530 0.975677 0.194067 0.101749 0.014457 0.184371
2.378830 -0.000001 11.070530 0.990051 0.097507 0.101260 0.014457 0.183805
2.243580 0.326521 11.070530 0.703421 0.703421 0.101749 0.014457 0.192419
2.007145 0.452898 11.070530 0.194067 0.975677 0.101749 0.014457 0.207478
1.740347 0.426621 11.070530 -0.380688 0.919065 0.101749 0.014457 0.224470
1.533110 0.256546 11.070530 -0.827143 0.552660 0.101749 0.014457 0.237669
1.455287 -0.000000 11.070530 -0.990051 0.097507 0.101260 0.014457 0.242626
2.093771 0.426621 11.162920 0.382672 0.923856 0.000000 0.010199 0.201961
2.173605 0.383948 11.162920 0.555559 0.831446 0.000000 0.010199 0.196876
1.826972 0.452898 11.162920 -0.195074 0.980773 0.000000 0.010199 0.218953
1.917058 0.461771 11.162920 0.000000 1.000000 0.000000 0.010199 0.213216
1.590537 0.326521 11.162920 -0.707083 0.707083 0.000000 0.010199 0.234012
1.660512 0.383949 11.162920 -0.555559 0.831446 0.000000 0.010199 0.229555
1.464159 0.090087 11.162920 -0.980773 0.195074 0.000000 0.010199 0.242061
1.490437 0.176712 11.162920 -0.923856 0.382672 0.000000 0.010199 0.240387
2.369957 0.090086 11.162920 0.980773 0.195074 0.000000 0.010199 0.184371
2.378830 -0.000001 11.162920 0.995178 0.097995 0.000000 0.010199 0.183805
2.243580 0.326521 11.162920 0.707083 0.707083 0.000000 0.010199 0.192419
2.007145 0.452898 11.162920 0.195074 0.980773 0.000000 0.010199 0.207478
1.740347 0.426621 11.162920 -0.382672 0.923856 0.000000 0.010199 0.224470
1.533109 0.256546 11.162920 -0.831446 0.555559 0.000000 0.010199 0.237669
1.455287 -0.000000 11.162920 -0.995178 0.097995 0.000000 0.010199 0.242626
2.112148 0.980785 -1.304705 0.195074 0.980773 0.000000 0.584721 0.200790
2.299741 0.923880 -1.304705 0.382672 0.923856 0.000000 0.584721 0.188843
2.472628 0.831470 -1.304705 0.555559 0.831446 0.000000 0.584721 0.177831
2.624164 0.707107 -1.304705 0.707083 0.707083 0.000000 0.584721 0.168180
2.748527 0.555570 -1.304705 0.831446 0.555559 0.000000 0.584721 0.160259
2.840937 0.382684 -1.304705 0.923856 0.382672 0.000000 0.584721 0.154374
2.897843 0.195091 -1.304705 0.980773 0.195074 0.000000 0.584721 0.150749
2.917058 0.000000 -1.304705 0.995178 0.097995 0.000000 0.584721 0.149526
0.917058 0.000001 -1.304705 -0.995178 0.097995 0.000000 0.584721 0.276906
0.936273 0.195092 -1.304705 -0.980773 0.195074 0.000000 0.584721 0.275682
0.993179 0.382685 -1.304705 -0.923856 0.382672 0.000000 0.584721 0.272058
1.085589 0.555571 -1.304705 -0.831446 0.555559 0.000000 0.584721 0.266172
1.209952 0.707108 -1.304705 -0.707083 0.707083 0.000000 0.584721 0.258251
1.361489 0.831470 -1.304705 -0.555559 0.831446 0.000000 0.584721 0.248600
1.534376 0.923880 -1.304705 -0.406446 0.913663 -0.000214 0.584721 0.237589
1.917058 1.000000 -1.304706 -0.281777 0.906613 0.314005 0.584721 0.213216
1.668268 0.975388 -1.304705 0.069033 0.945677 0.317667 0.584721 0.225641
1.683357 0.822857 -1.304705 0.517685 0.631367 0.577349 0.584721 0.225641
1.932147 0.847470 -1.304706 -0.631367 0.517685 0.577349 0.584721 0.213216
1.917058 1.000000 -1.304706 -0.281777 0.906613 0.314005 0.515315 0.215439
1.917058 1.000000 0.222555 -0.281777 0.906613 -0.314005 0.515315 0.203095
2.112148 0.980785 0.222556 0.195074 0.980773 0.000000 0.585229 0.203095
2.112148 0.980785 -1.304705 0.195074 0.980773 0.000000 0.585229 0.215439
1.917058 1.000000 -1.304706 0.759117 0.395978 -0.516617 0.584721 0.213216
1.917058 1.000000 0.222555 0.881954 0.460036 0.102359 0.514343 0.213216
1.668268 0.975388 0.222556 0.857601 0.501389 0.114383 0.514343 0.225641
1.668268 0.975388 -1.304705 0.715476 0.418317 -0.559526 0.584721 0.225641
1.683357 0.822857 0.222556 0.517685 0.631367 -0.577349 0.514343 0.225641
1.932147 0.847469 0.222555 -0.631367 0.517685 -0.577349 0.514343 0.213216
1.932147 0.847470 -1.304706 -0.631367 0.517685 0.577349 0.515315 0.215439
1.932147 0.847469 0.222555 -0.631367 0.517685 -0.577349 0.515315 0.203095
1.721967 -0.848729 -1.304705 0.550676 -0.607562 0.572344 0.416117 0.084939
1.721967 -0.848729 -0.994699 0.671529 -0.740928 0.000000 0.430405 0.084939
1.917058 -0.867944 0.222556 -0.602161 -0.545762 -0.582659 0.486507 0.085916
1.721967 -0.848729 0.222556 0.550676 -0.607562 -0.572344 0.430405 0.085916
1.721967 -0.848729 -0.994699 0.671529 -0.740928 0.000000 0.416117 0.085916
1.917057 -0.867944 -1.304705 -0.602161 -0.545762 0.582659 0.486507 0.072743
1.721967 -0.848729 -1.304705 0.550676 -0.607562 0.572344 0.416117 0.072743
1.917058 -0.867944 0.222556 -0.602161 -0.545762 -0.582659 0.486507 0.071766
1.917057 -0.867944 -1.304705 -0.602161 -0.545762 0.582659 0.416117 0.071766
1.721967 -0.848729 0.222556 0.550676 -0.607562 -0.572344 0.486507 0.084939
4 0 1 2 3
4 3 2 4 5
4 5 4 6 7
4 7 6 8 9
4 9 8 10 11
4 11 10 12 13
4 13 12 14 15
4 15 14 16 17
4 17 16 18 19
4 19 18 20 21
4 21 20 22 23
4 23 22 24 25
4 25 24 26 27
4 27 26 28 29
4 29 28 30 31
4 31 30 32 33
4 34 35 36 37
4 38 39 40 41
4 42 38 41 43
4 44 42 43 45
4 46 44 45 35
4 47 46 35 34
4 48 47 34 49
4 50 48 49 51
4 52 50 51 53
4 54 52 53 55
4 56 54 55 57
4 58 56 57 59
4 60 58 59 61
4 62 60 61 63
4 64 62 63 65
4 66 64 65 67
4 68 66 67 69
4 70 71 72 73
4 53 51 74 75
4 59 57 76 77
4 65 63 78 79
4 45 43 70 80
4 49 34 37 81
4 55 53 75 82
4 61 59 77 83
4 67 65 79 84
4 41 40 85 71
4 35 45 80 36
4 51 49 81 74
4 57 55 82 76
4 63 61 83 78
4 69 67 84 86
4 43 41 71 70
4 37 36 87 88
4 75 74 89 90
4 77 76 91 92
4 79 78 93 94
4 80 70 73 95
4 81 37 88 96
4 82 75 90 97
4 83 77 92 98
4 84 79 94 99
4 71 85 100 72
4 36 80 95 87
4 74 81 96 89
4 76 82 97 91
4 78 83 98 93
4 86 84 99 101
4 73 72 102 103
4 88 87 104 105
4 90 89 106 107
4 92 91 108 109
4 94 93 110 111
4 95 73 103 112
4 96 88 105 113
4 97 90 107 114
4 98 92 109 115
4 99 94 111 116
4 72 100 117 102
4 87 95 112 104
4 89 96 113 106
4 91 97 114 108
4 93 98 115 110
4 101 99 116 118
4 103 102 119 120
4 105 104 121 122
4 107 106 123 124
4 109 108 125 126
4 111 110 127 128
4 112 103 120 129
4 113 105 122 130
4 114 107 124 131
4 115 109 126 132
4 116 111 128 133
4 102 117 134 119
4 104 112 129 121
4 106 113 130 123
4 108 114 131 125
4 110 115 132 127
4 118 116 133 135
4 120 119 136 137
4 122 121 138 139
4 124 123 140 141
4 126 125 142 143
4 128 127 144 145
4 129 120 137 146
4 130 122 139 147
4 131 124 141 148
4 132 126 143 149
4 133 128 145 150
4 119 134 151 136
4 121 129 146 138
4 123 130 147 140
4 125 131 148 142
4 127 132 149 144
4 135 133 150 152
4 32 30 153 154
4 30 28 155 153
4 28 26 156 155
4 26 24 157 156
4 24 22 158 157
4 22 20 159 158
4 20 18 160 159
4 18 16 161 160
4 16 14 162 161
4 14 12 163 162
4 12 10 164 163
4 10 8 165 164
4 8 6 166 165
4 6 4 167 166
4 4 2 168 167
4 2 1 169 168
4 153 155 170 171
4 157 158 172 173
4 160 161 174 175
4 163 164 176 177
4 166 167 178 179
4 155 156 180 170
4 158 159 181 172
4 161 162 182 174
4 164 165 183 176
4 167 168 184 178
4 154 153 171 185
4 156 157 173 180
4 159 160 175 181
4 162 163 177 182
4 165 166 179 183
4 168 169 186 184
4 171 170 187 188
4 173 172 189 190
4 175 174 191 192
4 177 176 193 194
4 179 178 195 196
4 170 180 197 187
4 172 181 198 189
4 174 182 199 191
4 176 183 200 193
4 178 184 201 195
4 185 171 188 202
4 180 173 190 197
4 181 175 192 198
4 182 177 194 199
4 183 179 196 200
4 184 186 203 201
4 204 0 3 205
4 205 3 5 206
4 206 5 7 207
4 207 7 9 208
4 208 9 11 209
4 209 11 13 210
4 210 13 15 211
4 211 15 17 212
3 19 21 213
3 214 19 213
3 215 214 213
4 213 21 23 216
4 216 23 25 217
4 217 25 27 218
4 218 27 29 219
4 219 29 31 220
4 220 31 33 221
4 47 216 217 46
4 64 206 207 62
4 50 215 213 48
4 68 204 205 66
4 38 220 221 39
4 56 210 211 54
4 44 218 219 42
4 60 208 209 58
4 48 213 216 47
4 66 205 206 64
4 54 211 212 52
4 42 219 220 38
4 58 209 210 56
4 46 217 218 44
4 62 207 208 60
4 52 212 215 50
4 222 223 224 225
4 225 224 226 227
4 227 226 228 229
4 229 228 230 231
4 231 230 232 233
4 233 232 234 235
4 235 234 236 237
4 237 236 238 239
4 240 241 242 243
4 243 242 244 245
4 245 244 246 247
4 247 246 248 249
4 249 248 250 251
4 251 250 252 253
4 246 244 254 255
4 256 257 223 222
4 253 252 257 256
4 258 259 260 261
4 262 258 261 263
4 264 262 263 265
4 266 264 265 267
4 268 269 270 271
4 272 268 271 273
4 274 272 273 275
4 276 274 275 277
4 278 276 277 279
4 280 278 279 281
4 282 280 281 283
4 284 282 283 285
4 269 266 267 270
4 286 287 288 289
4 290 286 289 291
4 259 290 291 260
4 289 288 292 293
4 261 260 294 295
4 267 265 296 297
4 273 271 298 299
4 279 277 300 301
4 285 283 302 303
4 291 289 293 304
4 263 261 295 305
4 270 267 297 306
4 275 273 299 307
4 281 279 301 308
4 260 291 304 294
4 265 263 305 296
4 271 270 306 298
4 277 275 307 300
4 283 281 308 302
4 309 310 311 312
4 293 292 313 314
4 295 294 315 316
4 297 296 317 318
4 299 298 319 320
4 301 300 321 322
4 303 302 309 323
4 304 293 314 324
4 305 295 316 325
4 306 297 318 326
4 307 299 320 327
4 308 301 322 310
4 294 304 324 315
4 296 305 325 317
4 298 306 326 319
4 300 307 327 321
4 302 308 310 309
4 328 329 330 331
4 314 313 332 333
4 316 315 334 335
4 318 317 336 337
4 320 319 338 339
4 322 321 328 340
4 323 309 312 341
4 324 314 333 342
4 325 316 335 343
4 326 318 337 344
4 327 320 339 329
4 310 322 340 311
4 315 324 342 334
4 317 325 343 336
4 319 326 344 338
4 321 327 329 328
4 345 346 347 348
4 312 311 349 350
4 333 332 351 352
4 335 334 353 354
4 337 336 355 356
4 339 338 345 357
4 340 328 331 358
4 341 312 350 359
4 342 333 352 360
4 343 335 354 361
4 344 337 356 346
4 329 339 357 330
4 311 340 358 349
4 334 342 360 353
4 336 343 361 355
4 338 344 346 345
3 347 362 348
3 362 363 348
3 362 364 363
3 364 365 363
3 364 366 365
3 366 367 365
3 366 368 367
3 368 369 367
3 368 370 369
3 370 371 369
3 370 372 371
3 372 373 371
3 372 374 373
3 374 375 373
3 374 376 375
3 376 377 375
3 376 378 377
3 378 379 377
3 378 380 379
3 380 381 379
3 380 382 381
3 382 383 381
3 382 384 383
3 384 385 383
3 384 386 385
3 386 387 385
3 386 388 387
3 388 389 387
3 388 390 389
3 390 391 389
4 331 330 365 367
4 350 349 371 373
4 352 351 376 374
4 354 353 370 368
4 356 355 364 362
4 357 345 348 363
4 358 331 367 369
4 359 350 373 375
4 360 352 374 372
4 361 354 368 366
4 346 356 362 347
4 330 357 363 365
4 349 358 369 371
4 353 360 372 370
4 355 361 366 364
4 392 393 394 395
4 244 242 396 254
4 242 241 397 396
4 224 223 398 399
4 238 236 400 401
4 236 234 402 400
4 234 232 403 402
4 232 230 404 403
4 230 228 392 404
4 228 226 393 392
4 226 224 399 393
4 223 257 405 398
4 257 252 406 405
4 252 250 407 406
4 250 248 408 407
4 248 246 255 408
4 409 410 411 412
4 398 405 413 414
4 407 408 415 416
4 254 396 417 418
4 401 400 419 420
4 403 404 421 410
4 393 399 422 394
4 405 406 423 413
4 408 255 424 415
4 396 397 425 417
4 400 402 409 419
4 404 392 395 421
4 399 398 414 422
4 406 407 416 423
4 255 254 418 424
4 402 403 410 409
4 395 394 426 427
4 414 413 428 429
4 416 415 430 431
4 418 417 432 433
4 420 419 434 435
4 410 421 436 411
4 394 422 437 426
4 413 423 438 428
4 415 424 439 430
4 417 425 440 432
4 419 409 412 434
4 421 395 427 436
4 422 414 429 437
4 423 416 431 438
4 424 418 433 439
4 441 225 227 442
4 442 227 229 443
4 443 229 231 444
4 444 231 233 445
4 445 233 235 446
4 446 235 237 447
4 447 237 239 448
4 449 240 243 450
4 450 243 245 451
4 451 245 247 452
4 452 247 249 453
4 453 249 251 454
4 454 251 253 455
4 456 457 458 459
4 455 253 256 457
4 259 445 446 290
4 286 447 448 287
4 274 454 455 272
4 278 452 453 276
4 269 456 441 266
4 272 455 457 268
4 258 444 445 259
4 264 442 443 262
4 276 453 454 274
4 282 450 451 280
4 290 446 447 286
4 268 457 456 269
4 262 443 444 258
4 266 441 442 264
4 280 451 452 278
4 284 449 450 282
4 460 461 462 463
4 222 456 464 465
4 457 256 466 467
4 458 468 469 459
4 256 222 469 468
4 457 256 468 458
4 461 460 470 471
4 214 215 472 473
3 474 475 476
3 477 474 476
3 477 476 478
4 212 17 479 480
4 19 214 473 481
4 17 19 481 479
4 215 212 480 472
